HIERARCHY
ROOT Hips
{
	OFFSET	0.00	0.00	0.00
	CHANNELS 6 Xposition Yposition Zposition Zrotation Xrotation Yrotation
	JOINT LeftUpLeg
	{
		OFFSET	 0.126116	-0.065224	 0.014019
		CHANNELS 3 Zrotation Xrotation Yrotation
		JOINT LeftLeg
		{
			OFFSET	 0.000000	 0.569914	 0.000000
			CHANNELS 3 Zrotation Xrotation Yrotation
			JOINT LeftFoot
			{
				OFFSET	 0.000000	 0.544423	 0.000000
				CHANNELS 3 Zrotation Xrotation Yrotation
				JOINT LeftToeBase
				{
					OFFSET	 0.000000	 0.207117	 0.000000
					CHANNELS 3 Zrotation Xrotation Yrotation
					End Site
					{
						OFFSET	 0.000000	 0.207117	 0.000000
					}
				}
			}
		}
	}
	JOINT RightUpLeg
	{
		OFFSET	-0.124023	-0.065224	 0.008373
		CHANNELS 3 Zrotation Xrotation Yrotation
		JOINT RightLeg
		{
			OFFSET	 0.000000	 0.570047	 0.000000
			CHANNELS 3 Zrotation Xrotation Yrotation
			JOINT RightFoot
			{
				OFFSET	 0.000000	 0.544354	 0.000000
				CHANNELS 3 Zrotation Xrotation Yrotation
				JOINT RightToeBase
				{
					OFFSET	 0.000000	 0.207540	 0.000000
					CHANNELS 3 Zrotation Xrotation Yrotation
					End Site
					{
						OFFSET	 0.000000	 0.207540	 0.000000
					}
				}
			}
		}
	}
	JOINT Spine
	{
		OFFSET	 0.000184	 0.117403	 0.007763
		CHANNELS 3 Zrotation Xrotation Yrotation
		JOINT Spine1
		{
			OFFSET	 0.000000	 0.137269	 0.000000
			CHANNELS 3 Zrotation Xrotation Yrotation
			JOINT Spine2
			{
				OFFSET	 0.000000	 0.156879	 0.000000
				CHANNELS 3 Zrotation Xrotation Yrotation
				JOINT LeftShoulder
				{
					OFFSET	 0.080501	 0.160143	 0.002496
					CHANNELS 3 Zrotation Xrotation Yrotation
					JOINT LeftArm
					{
						OFFSET	 0.000000	 0.164363	 0.000000
						CHANNELS 3 Zrotation Xrotation Yrotation
						JOINT LeftForeArm
						{
							OFFSET	 0.000000	 0.364576	 0.000000
							CHANNELS 3 Zrotation Xrotation Yrotation
							JOINT LeftHand
							{
								OFFSET	 0.000000	 0.360812	 0.000000
								CHANNELS 3 Zrotation Xrotation Yrotation
								JOINT LeftHandIndex1
								{
									OFFSET	 0.000000	 0.086006	 0.000000
									CHANNELS 3 Zrotation Xrotation Yrotation
									JOINT LeftHandIndex2
									{
										OFFSET	 0.000000	 0.047237	 0.000000
										CHANNELS 3 Zrotation Xrotation Yrotation
										JOINT LeftHandIndex3
										{
											OFFSET	-0.004284	 0.038165	 0.000551
											CHANNELS 3 Zrotation Xrotation Yrotation
											End Site
											{
												OFFSET	-0.004284	 0.038165	 0.000551
											}
										}
									}
								}
							}
						}
					}
				}
				JOINT Neck
				{
					OFFSET	 0.000000	 0.176489	 0.000000
					CHANNELS 3 Zrotation Xrotation Yrotation
					JOINT Head
					{
						OFFSET	 0.000000	 0.077941	 0.001747
						CHANNELS 3 Zrotation Xrotation Yrotation
						End Site
						{
							OFFSET	 0.000000	 0.077941	 0.001747
						}
					}
				}
				JOINT RightShoulder
				{
					OFFSET	-0.080363	 0.159706	-0.000306
					CHANNELS 3 Zrotation Xrotation Yrotation
					JOINT RightArm
					{
						OFFSET	 0.000000	 0.164196	 0.000000
						CHANNELS 3 Zrotation Xrotation Yrotation
						JOINT RightForeArm
						{
							OFFSET	 0.000000	 0.365611	 0.000000
							CHANNELS 3 Zrotation Xrotation Yrotation
							JOINT RightHand
							{
								OFFSET	 0.000000	 0.360648	 0.000000
								CHANNELS 3 Zrotation Xrotation Yrotation
								JOINT RightHandIndex1
								{
									OFFSET	 0.000000	 0.069977	 0.000000
									CHANNELS 3 Zrotation Xrotation Yrotation
									JOINT RightHandIndex2
									{
										OFFSET	 0.000000	 0.052305	 0.000000
										CHANNELS 3 Zrotation Xrotation Yrotation
										JOINT RightHandIndex3
										{
											OFFSET	 0.009002	 0.042196	 0.000782
											CHANNELS 3 Zrotation Xrotation Yrotation
											End Site
											{
												OFFSET	 0.009002	 0.042196	 0.000782
											}
										}
									}
								}
							}
						}
					}
				}
			}
		}
	}
}
MOTION
Frames:    10
Frame Time: 0.03333334
 0.001406	 1.271279	 0.063397	 0.015593	-0.011744	 179.999900	-176.974600	 1.274633	-10.278160	 2.283721	-10.652620	-0.044515	-5.347144	 70.150440	 4.728506	 1.292262	 28.425850	-2.713146	 176.978900	 1.737261	 10.295540	-2.317936	-11.129250	 0.040380	 5.408715	 70.261570	-4.819631	-1.288183	 28.361890	 2.710176	-0.089620	 2.704450	-0.000518	 0.008086	 3.690146	-0.000993	-0.003820	-4.717752	-0.004157	-101.478000	 1.740670	 90.353390	 64.158150	 39.968090	-53.896740	 1.803150	 3.767130	 1.395756	-30.173300	 7.289396	-0.689703	-6.580301	 5.266122	 0.000000	 0.000000	 0.000000	 0.000000	 0.000000	 0.000000	 0.000000	 0.089846	-3.783161	 0.005928	 0.000015	 1.263154	-0.001370	 101.796200	-0.213312	-89.955450	-5.722598	 64.477220	-3.051955	-6.031114	 9.157135	 1.764988	-14.169350	-2.540132	 2.078998	 15.208500	 5.323790	 0.000000	 0.000000	 0.000000	 0.000000	 0.000000	 0.000000	 0.000000
 0.001421	 1.271273	 0.063502	 0.032524	-0.070841	 179.998400	-176.860300	 1.379932	-11.312530	 2.299498	-10.724470	-0.041585	-5.346500	 70.120070	 4.726241	 1.292262	 28.425850	-2.713146	 176.894000	 1.825364	 11.327420	-2.325965	-11.166810	 0.038829	 5.395526	 70.217410	-4.811844	-1.288183	 28.361890	 2.710176	-0.096416	 2.704216	 0.143511	 0.042320	 3.571381	-0.001515	-0.019686	-4.662405	-0.002107	-101.478000	 1.740674	 90.353390	 63.888330	 40.082100	-53.665260	 1.819190	 3.759326	 1.502671	-29.955340	 7.397676	-0.678981	-6.580301	 5.266122	 0.000000	 0.000000	 0.000000	 0.000000	 0.000000	 0.000000	 0.000000	 0.089846	-3.783161	 0.005928	 0.000015	 1.263154	-0.001370	 101.796200	-0.213313	-89.955460	-9.200214	 66.770940	 0.115157	-2.815659	 4.278996	 1.273629	-15.843180	 0.040072	 2.719015	 15.208500	 5.323790	 0.000000	 0.000000	 0.000000	 0.000000	 0.000000	 0.000000	 0.000000
 0.001432	 1.271304	 0.063609	 0.050652	-0.131584	 179.996000	-176.742500	 1.467096	-12.362810	 2.307301	-10.760000	-0.040128	-5.334741	 70.070410	 4.718289	 1.292262	 28.425850	-2.713146	 176.808300	 1.894289	 12.373370	-2.325670	-11.165430	 0.038886	 5.371013	 70.152440	-4.797978	-1.288183	 28.361890	 2.710176	-0.065506	 2.581891	 0.581409	-0.016144	 3.677662	-0.000594	 0.007805	-4.711949	 0.002073	-101.478000	 1.740657	 90.353390	 63.618230	 40.199370	-53.431170	 1.876590	 3.752994	 1.828788	-29.735920	 7.495188	-0.671412	-6.580301	 5.266122	 0.000000	 0.000000	 0.000000	 0.000000	 0.000000	 0.000000	 0.000000	 0.089846	-3.783161	 0.005928	 0.000015	 1.263154	-0.001370	 101.796200	-0.213316	-89.955450	-8.887514	 66.584370	-0.173076	-2.855980	 4.245598	 0.928782	-16.151440	 0.246932	 2.613149	 15.208500	 5.323790	 0.000000	 0.000000	 0.000000	 0.000000	 0.000000	 0.000000	 0.000000
 0.001445	 1.271339	 0.063725	 0.068937	-0.198319	 179.993300	-176.614000	 1.557845	-13.517090	 2.314603	-10.793230	-0.038763	-5.272912	 70.013400	 4.658351	 1.292262	 28.425850	-2.713146	 176.711300	 1.968060	 13.535390	-2.325455	-11.164430	 0.038932	 5.329974	 70.081090	-4.769119	-1.288183	 28.361890	 2.710176	-0.083523	 2.514391	 1.420564	-0.016165	 3.668237	-0.000595	 0.008029	-4.707528	 0.006126	-101.478000	 1.740655	 90.353360	 63.322360	 40.329610	-53.173150	 1.989134	 3.747137	 2.450935	-29.495650	 7.588958	-0.664240	-6.580301	 5.266122	 0.000000	 0.000000	 0.000000	 0.000000	 0.000000	 0.000000	 0.000000	 0.089846	-3.783161	 0.005928	 0.000015	 1.263154	-0.001370	 101.796200	-0.213309	-89.955450	-8.433125	 66.355740	-0.590827	-2.948246	 4.205382	 0.271305	-16.678470	 0.495074	 2.370369	 15.208500	 5.323790	 0.000000	 0.000000	 0.000000	 0.000000	 0.000000	 0.000000	 0.000000
 0.001457	 1.271371	 0.063824	 0.083374	-0.255103	 179.991200	-176.501200	 1.630993	-14.543350	 2.319845	-10.817090	-0.037782	-5.241333	 69.960180	 4.633017	 1.292262	 28.425850	-2.713146	 176.624100	 2.029327	 14.562310	-2.325486	-11.164570	 0.038921	 5.300895	 70.019070	-4.752882	-1.288183	 28.361890	 2.710176	-0.112502	 2.456342	 2.463678	-0.018455	 3.660206	-0.000559	 0.009259	-4.703811	 0.009269	-101.478000	 1.740680	 90.353390	 63.066400	 40.443950	-52.948940	 2.130613	 3.742612	 3.224499	-29.287850	 7.658508	-0.658985	-6.580301	 5.266122	 0.000000	 0.000000	 0.000000	 0.000000	 0.000000	 0.000000	 0.000000	 0.089846	-3.783161	 0.005928	 0.000015	 1.263154	-0.001370	 101.796200	-0.213309	-89.955450	-7.939115	 66.135220	-1.042876	-3.069971	 4.166435	-0.546063	-17.305440	 0.729611	 2.048370	 15.208500	 5.323790	 0.000000	 0.000000	 0.000000	 0.000000	 0.000000	 0.000000	 0.000000
 0.001471	 1.271405	 0.063923	 0.096565	-0.311727	 179.989400	-176.388300	 1.699910	-15.582880	 2.324060	-10.836260	-0.036995	-5.207650	 69.903970	 4.607622	 1.292262	 28.425850	-2.713146	 176.534500	 2.088577	 15.602360	-2.325537	-11.164810	 0.038920	 5.269300	 69.956800	-4.735514	-1.288183	 28.361890	 2.710176	-0.153240	 2.397005	 3.808055	-0.022814	 3.653270	-0.000490	 0.011466	-4.700599	 0.012546	-101.478000	 1.740687	 90.353400	 62.813030	 40.559560	-52.724120	 2.313885	 3.738570	 4.222456	-29.080760	 7.716630	-0.655783	-6.580301	 5.266122	 0.000000	 0.000000	 0.000000	 0.000000	 0.000000	 0.000000	 0.000000	 0.089846	-3.783161	 0.005928	 0.000015	 1.263154	-0.001370	 101.796200	-0.213305	-89.955450	-7.342986	 65.890800	-1.584875	-3.232433	 4.124467	-1.599553	-18.099000	 0.982451	 1.619237	 15.208500	 5.323790	 0.000000	 0.000000	 0.000000	 0.000000	 0.000000	 0.000000	 0.000000
 0.001488	 1.271443	 0.064032	 0.109536	-0.373659	 179.987200	-176.263000	 1.770506	-16.753640	 2.327618	-10.852450	-0.036321	-5.166919	 69.838550	 4.578353	 1.292262	 28.425850	-2.713146	 176.431900	 2.151762	 16.773470	-2.325918	-11.166590	 0.038842	 5.232656	 69.888060	-4.716289	-1.288183	 28.361890	 2.710176	-0.211839	 2.330236	 5.663262	-0.030156	 3.645084	-0.000373	 0.015062	-4.696796	 0.015800	-101.478000	 1.740685	 90.353390	 62.533180	 40.689850	-52.476010	 2.568797	 3.735789	 5.603101	-28.852290	 7.765189	-0.653010	-6.580301	 5.266122	 0.000000	 0.000000	 0.000000	 0.000000	 0.000000	 0.000000	 0.000000	 0.089846	-3.783161	 0.005928	 0.000015	 1.263154	-0.001370	 101.796200	-0.213315	-89.955440	-6.553054	 65.587540	-2.299202	-3.460547	 4.072346	-3.058008	-19.188810	 1.286303	 1.016135	 15.208500	 5.323790	 0.000000	 0.000000	 0.000000	 0.000000	 0.000000	 0.000000	 0.000000
 0.001506	 1.271482	 0.064136	 0.120564	-0.433623	 179.985000	-176.141400	 1.833609	-17.907710	 2.329811	-10.862430	-0.035905	-5.123992	 69.771550	 4.548987	 1.292262	 28.425850	-2.713146	 176.329300	 2.210794	 17.927740	-2.326420	-11.168950	 0.038742	 5.194921	 69.821300	-4.697235	-1.288183	 28.361890	 2.710176	-0.280948	 2.262637	 7.834956	-0.040056	 3.636523	-0.000216	 0.019858	-4.692782	 0.019413	-101.478000	 1.740666	 90.353380	 62.265830	 40.818990	-52.235150	 2.869250	 3.733661	 7.226882	-28.631690	 7.796524	-0.653549	-6.580301	 5.266122	 0.000000	 0.000000	 0.000000	 0.000000	 0.000000	 0.000000	 0.000000	 0.089846	-3.783161	 0.005928	 0.000015	 1.263154	-0.001370	 101.796200	-0.213294	-89.955470	-5.639667	 65.253450	-3.116933	-3.733341	 4.018692	-4.773151	-20.471750	 1.605523	 0.296635	 15.208500	 5.323790	 0.000000	 0.000000	 0.000000	 0.000000	 0.000000	 0.000000	 0.000000
 0.001525	 1.271522	 0.064237	 0.129718	-0.491695	 179.982800	-176.022400	 1.889570	-19.060160	 2.330742	-10.866660	-0.035728	-5.078390	 69.702350	 4.519127	 1.292262	 28.425850	-2.713146	 176.225200	 2.265860	 19.080220	-2.327108	-11.172150	 0.038610	 5.156033	 69.755740	-4.678455	-1.288183	 28.361890	 2.710176	-0.359696	 2.192788	 10.325300	-0.052290	 3.628670	-0.000023	 0.025750	-4.689147	 0.022741	-101.478000	 1.740669	 90.353390	 62.006690	 40.948820	-52.002260	 3.217448	 3.733158	 9.103340	-28.416490	 7.808629	-0.654451	-6.580301	 5.266122	 0.000000	 0.000000	 0.000000	 0.000000	 0.000000	 0.000000	 0.000000	 0.089846	-3.783161	 0.005928	 0.000015	 1.263154	-0.001370	 101.796200	-0.213319	-89.955440	-4.591211	 64.880510	-4.047007	-4.050846	 3.961094	-6.755568	-21.966100	 1.944441	-0.542144	 15.208500	 5.323790	 0.000000	 0.000000	 0.000000	 0.000000	 0.000000	 0.000000	 0.000000
 0.001546	 1.271562	 0.064336	 0.137216	-0.548838	 179.981100	-175.905100	 1.939533	-20.217620	 2.330462	-10.865380	-0.035780	-5.031240	 69.630570	 4.490095	 1.292262	 28.425850	-2.713146	 176.119200	 2.317875	 20.237550	-2.327956	-11.176120	 0.038444	 5.114172	 69.691090	-4.658092	-1.288183	 28.361890	 2.710176	-0.445017	 2.118889	 13.093800	-0.067064	 3.620456	 0.000208	 0.032796	-4.685323	 0.025797	-101.478000	 1.740671	 90.353380	 61.755020	 41.080590	-51.773570	 3.610086	 3.734389	 11.214370	-28.205370	 7.803011	-0.658376	-6.580301	 5.266122	 0.000000	 0.000000	 0.000000	 0.000000	 0.000000	 0.000000	 0.000000	 0.089846	-3.783161	 0.005928	 0.000015	 1.263154	-0.001370	 101.796200	-0.213313	-89.955440	-3.407986	 64.463630	-5.085203	-4.409259	 3.899697	-8.987132	-23.670300	 2.301935	-1.492214	 15.208500	 5.323790	 0.000000	 0.000000	 0.000000	 0.000000	 0.000000	 0.000000	 0.000000
